<svg viewBox="0 0 64 64" xmlns="http://www.w3.org/2000/svg"><path d="m48 6.6c-4.7-2.9-10.1-4.6-16-4.6v4.6z" fill="#ed4c5c"/><path d="m32 11.2h21.6c-1.7-1.7-3.6-3.3-5.6-4.6h-16z" fill="#fff"/><path d="m32 15.8h25.3c-1.1-1.7-2.3-3.2-3.6-4.6h-21.7z" fill="#ed4c5c"/><path d="m32 20.4h27.7c-.7-1.6-1.5-3.2-2.4-4.6h-25.3z" fill="#fff"/><path d="m32 25h29.2c-.4-1.6-.9-3.1-1.5-4.6h-27.7z" fill="#ed4c5c"/><path d="m32 29.7h29.9c-.1-1.6-.4-3.1-.7-4.6h-29.2z" fill="#fff"/><path d="m61.9 29.7h-29.9v2.3h-30c0 .8 0 1.5.1 2.3h59.8c.1-.8.1-1.5.1-2.3s0-1.6-.1-2.3" fill="#ed4c5c"/><path d="m2.8 38.9h58.4c.4-1.5.6-3 .7-4.6h-59.8c.1 1.5.3 3.1.7 4.6" fill="#fff"/><path d="m4.3 43.5h55.4c.6-1.5 1.1-3 1.5-4.6h-58.4c.4 1.6.9 3.1 1.5 4.6" fill="#ed4c5c"/><path d="m6.7 48.1h50.6c.9-1.5 1.7-3 2.4-4.6h-55.4c.7 1.6 1.5 3.1 2.4 4.6" fill="#fff"/><path d="m10.3 52.7h43.4c1.3-1.4 2.6-3 3.6-4.6h-50.6c1 1.7 2.3 3.2 3.6 4.6" fill="#ed4c5c"/><path d="m15.9 57.3h32.2c2.1-1.3 3.9-2.9 5.6-4.6h-43.4c1.7 1.8 3.6 3.3 5.6 4.6" fill="#fff"/><path d="m32 62c5.9 0 11.4-1.7 16.1-4.7h-32.2c4.7 3 10.2 4.7 16.1 4.7" fill="#ed4c5c"/><path d="m16 6.6c-2.1 1.3-4 2.9-5.7 4.6-1.4 1.4-2.6 3-3.6 4.6-.9 1.5-1.8 3-2.4 4.6-.6 1.5-1.1 3-1.5 4.6-.4 1.5-.6 3-.7 4.6-.1.8-.1 1.6-.1 2.4h30v-30c-5.9 0-11.3 1.7-16 4.6" fill="#428bc1"/><path d="m25 3 .5 1.5h1.5l-1.2 1 .4 1.5-1.2-.9-1.2.9.4-1.5-1.2-1h1.5zm4 6 .5 1.5h1.5l-1.2 1 .4 1.5-1.2-.9-1.2.9.4-1.5-1.2-1h1.5zm-8 0 .5 1.5h1.5l-1.2 1 .4 1.5-1.2-.9-1.2.9.4-1.5-1.2-1h1.5zm4 6 .5 1.5h1.5l-1.2 1 .4 1.5-1.2-.9-1.2.9.4-1.5-1.2-1h1.5zm-8 0 .5 1.5h1.5l-1.2 1 .4 1.5-1.2-.9-1.2.9.4-1.5-1.2-1h1.5zm-8 0 .5 1.5h1.5l-1.2 1 .4 1.5-1.2-.9-1.2.9.4-1.5-1.2-1h1.5zm20 6 .5 1.5h1.5l-1.2 1 .4 1.5-1.2-.9-1.2.9.4-1.5-1.2-1h1.5zm-8 0 .5 1.5h1.5l-1.2 1 .4 1.5-1.2-.9-1.2.9.4-1.5-1.2-1h1.5zm-8 0 .5 1.5h1.5l-1.2 1 .4 1.5-1.2-.9-1.2.9.4-1.5-1.2-1h1.5zm12 6 .5 1.5h1.5l-1.2 1 .4 1.5-1.2-.9-1.2.9.4-1.5-1.2-1h1.5zm-8 0 .5 1.5h1.5l-1.2 1 .4 1.5-1.2-.9-1.2.9.4-1.5-1.2-1h1.5zm-8 0 .5 1.5h1.5l-1.2 1 .4 1.5-1.2-.9-1.2.9.4-1.5-1.2-1h1.5zm2.8-14 1.2-.9 1.2.9-.5-1.5 1.2-1h-1.5l-.4-1.5-.5 1.5h-1.4l1.2.9zm-8 12 1.2-.9 1.2.9-.5-1.5 1.2-1h-1.4l-.5-1.5-.5 1.5h-1c0 .1-.1.2-.1.3l.8.6z" fill="#fff"/></svg>